<svg width="2000" height="1125" fill="none" xmlns="http://www.w3.org/2000/svg"><g clip-path="url(#a)"><path d="M2000 0H0v1125h2000V0Z" fill="#F5F5F5"/><path d="M523.071 0H2000v1125H-1l5.4672-485.867 129.6508-37.132c239.763 0 202.868-125.755 270.237-327.861C495.735 0 442.625 114.554 523.071 0Z" fill="url(#b)"/><path d="M564.466 0H2000v1125H-1l5.4672-485.867 129.6508-37.132c239.763 0 202.868-125.755 270.237-327.861C495.735 0 484.02 114.554 564.466 0Z" fill="url(#c)" fill-opacity=".3"/><path d="M1002.62 0H2000v1125H-1l5.4672-485.867 393.6398-37.132c239.762 0 327.897-58.229 386.61-263.079 19.592-68.359 106.22-178.546 106.22-178.546S982.317 94.8034 1002.62 0Z" fill="url(#d)"/><path d="M1333.78 0H2000v1125H-1V636.763l656.847-25.281c239.762 0 349.763-28.998 408.483-233.849 19.59-68.359 121.23-200.597 152.3-245.698 23.06-33.4833 39.83-55.3023 74.19-84.5333C1310.35 16.5906 1333.78 0 1333.78 0Z" fill="url(#e)"/><path d="M1333.78 0H2000v1125H-1V636.763s7.8103-1.58 882.564-1.58c239.766 0 195.126-110.371 253.836-315.222 19.59-68.359 50.16-142.925 81.23-188.026 23.06-33.4833 39.83-55.3023 74.19-84.5333C1310.35 16.5906 1333.78 0 1333.78 0Z" fill="url(#f)"/><path d="M1557.16 0H2000v1125H-1V636.763s146.834 91.643 1021.59 91.643c239.76 0 315.62-199.994 387.39-400.544C1470.46 153.265 1557.16 0 1557.16 0Z" fill="url(#g)"/><path d="M1789.9 0H2000v1125H-1V636.763s277.266 171.436 1152.02 171.436c239.76 0 409.82-254.337 485.02-470.067C1701.65 116.134 1789.9 0 1789.9 0Z" fill="url(#h)"/><path d="M2000 407v718H-1V636.855s1065.33 257.5 1132.49 257.5c130.01 0 26.97 13.891 191.36 4.74 44.08-2.455 118.53 17.116 251.49 11.848C1698.11 906.038 1901.59 679.508 2000 407Z" fill="url(#i)"/><path d="M2000 876.262V1125H-1V637s253.835 323.754 1128.59 323.754c239.76 0 406.25-8.754 570.15-24.479 171.74-16.477 48.36-60.013 302.26-60.013Z" fill="url(#j)"/><path d="M477.272 0s7.808 33.9712 35.135 78.2128c17.041 27.5902 12.492 33.7482 30.45 46.6112 13.873 9.938 28.845 10.578 43.723 21.331 32.793 23.702 35.916 53.722 117.116 90.853 35.135 16.067 61.665 91.387 98.378 150.106C838.787 445.833 871.453 492.89 912.5 579c23.214 48.699 50.246 134.049 98 217.5 64.79 113.227 162.95 152.686 291.27 172.865 115.55 18.17 224.8 9.105 348.22-32.392C1892.03 855.601 1999 626 1999 626v499H1V0h476.272Z" fill="url(#k)"/><path d="M389.825 0s54.654 63.9923 108.528 96.3834c23.889 14.3636 59.605 29.0836 88.227 49.7716 32.793 23.702 35.916 53.722 117.116 90.853 35.135 16.067 61.665 91.387 98.378 150.106 36.713 58.719 74.448 104.025 113.212 191.187C936.5 626 963.5 741.5 1019.91 790.818c64.79 113.227 153.54 158.368 281.86 178.547 115.55 18.17 224.8 9.105 348.22-32.392C1892.03 855.601 1999 578.301 1999 578.301V1125H1V0h388.825Z" fill="url(#l)"/><path d="M247.725 0s121.019 41.0815 214.712 143.785c49.092 53.813 122.129 52.738 203.001 100.334 76.516 45.031 174.894 191.186 235.013 308.901C948.508 647.115 990.532 753.047 1035 846.5c48.02 100.91 100.23 187.6 204 238.5 81.72 40.08 227.06 22.62 357.12 22.62C1881.88 1107.62 1999 884 1999 884v241H1V0h246.725Z" fill="url(#m)"/><path d="M1 17s79.4819 27.3872 135.111 110.374c62.478 93.207 237.233 107.854 353.786 139.02 135.886 36.337 234.99 120.452 356.129 286.729 174.944 240.125 250.504 351.969 344.414 480.247C1250.58 1115.52 1570 1125 1570 1125H1V17Z" fill="url(#n)"/><path d="M1 278.385s95.3977-13.946 167.914 7.905c102.31 30.829 153.153 94.759 242.108 118.573 103.711 27.765 172.082 39.806 313.96 105.136 181.971 83.792 235.439 239.943 357.698 408.683C1202.95 1084.68 1242 1125 1242 1125H1V278.385Z" fill="url(#o)"/><path d="M1 448s118.072 87.82 301.256 134.294c88.088 22.348 177.432 14.765 302.036 57.667 190.432 65.568 209.943 206.971 346.523 312.827C1056.72 1034.87 1199 1125 1199 1125H1V448Z" fill="url(#p)"/><path d="M1 714s226.098 109.683 375.068 177.22C673.801 1026.2 794 1125 794 1125H1V714Z" fill="url(#q)"/><path d="M1 1039s83.627 21.45 136.689 37.08C215.016 1098.86 290 1125 290 1125H1v-86Z" fill="url(#r)"/><path d="M969 699.5s138.56 43.777 195.5 37.5c141.36-15.583 304.27-96.245 437.5-146 179.96-67.207 397-477 397-477v1011h-459.5s-75.88-4.1-151.5-17c-60.21-10.27-118.73-24.27-157-44-48.5-25-106.5-121-106.5-121L1025 818.5s-37.5-70.5-56-119Z" fill="url(#s)" fill-opacity=".01"/><path d="M1014.05 798.685C991.494 756.988 978 722.167 978 722.167s66.42 53.88 178.76 41.51c141.57-15.587 359.17-140.684 440.65-332.577 47.57-112.026 93.14-295.569 195.29-431.1H2000v880.204s-52.75 106.037-129.69 154.536c-101.25 63.82-330.49 90.52-330.49 90.52s-113.04 12.91-188.77 0c-60.3-10.27-81.85-41.28-120.18-61.01-48.57-25.01-106.66-121.031-106.66-121.031l-69.1-87.021s-21.59-21.523-41.06-57.513Z" fill="url(#t)"/><path d="M1811 746c66.08-93.689 187-228 187-228v267l-79.5 110.5L1811 937l-308.5-41.5S1749.1 833.761 1811 746Z" fill="url(#u)"/><path d="M1812.43 746C1878.71 652.311 2000 518 2000 518v267l-79.74 110.5-107.83 41.5L1503 895.5s247.35-61.739 309.43-149.5Z" fill="url(#v)"/><path opacity=".2" d="M1665.41 896.826c-76.81-5.327-83.35 5.064-119.85-8.312-29.19-10.7-53.61-15.015-62.18-15.834-33.65-2.334-63.91 7.09-95.59 4.893-24.37-1.691-43.99 6.438-49.41 6.062-5.41-.375-17.32 14.388-52.53 11.946s-101.6 3.121-121.14.41c0 0 391.84 89.02 500.7.835Z" fill="url(#w)"/><path d="M1812.3 947.281C1878.63 853.477 2000 719 2000 719v406h-539s289.17-89.85 351.3-177.719Z" fill="url(#x)"/></g><defs><linearGradient id="b" x1="999.5" y1="0" x2="999.5" y2="1125" gradientUnits="userSpaceOnUse"><stop stop-color="#C7BAD8"/><stop offset="1" stop-color="#D33D48"/></linearGradient><linearGradient id="c" x1="771" y1="0" x2="451" y2="186" gradientUnits="userSpaceOnUse"><stop stop-color="#7A5BAB"/><stop offset="1" stop-color="#DF7646"/></linearGradient><linearGradient id="f" x1="1647.5" y1="0" x2="861" y2="862.5" gradientUnits="userSpaceOnUse"><stop stop-color="#425899" stop-opacity=".6"/><stop offset=".388" stop-color="#7875BD" stop-opacity=".6"/><stop offset=".8577" stop-color="#334666" stop-opacity=".5"/></linearGradient><linearGradient id="g" x1="1741" y1="-.0001" x2="1000" y2="816" gradientUnits="userSpaceOnUse"><stop stop-color="#675EA0" stop-opacity=".8"/><stop offset=".2723" stop-color="#6A5AA1"/><stop offset=".7019" stop-color="#5B5693"/><stop offset="1" stop-color="#415999"/></linearGradient><linearGradient id="h" x1="1836" y1=".0001" x2="1244.5" y2="1089.5" gradientUnits="userSpaceOnUse"><stop stop-color="#685FA5"/><stop offset=".2863" stop-color="#665EA0"/><stop offset=".6989" stop-color="#CE50A8"/><stop offset="1" stop-color="#BD55A9"/></linearGradient><linearGradient id="i" x1="1583.5" y1="465.5" x2="1371" y2="926" gradientUnits="userSpaceOnUse"><stop stop-color="#CD53A5"/><stop offset="1" stop-color="#9A2983"/></linearGradient><linearGradient id="j" x1="999.5" y1="637" x2="999.5" y2="1125" gradientUnits="userSpaceOnUse"><stop stop-color="#6A5AA1"/><stop offset="1" stop-color="#324971"/></linearGradient><linearGradient id="k" x1="573" y1=".0001" x2="1714.5" y2="1106" gradientUnits="userSpaceOnUse"><stop stop-color="#E7A942" stop-opacity=".3"/><stop offset=".482" stop-color="#E79D46"/><stop offset=".8031" stop-color="#DE6D45"/><stop offset=".9951" stop-color="#BD55A8"/></linearGradient><linearGradient id="l" x1="581" y1="0" x2="1121.5" y2="946.5" gradientUnits="userSpaceOnUse"><stop stop-color="#E8A844" stop-opacity=".35"/><stop offset=".3217" stop-color="#DC6744"/><stop offset=".4778" stop-color="#D74545"/><stop offset="1" stop-color="#AA33AF"/></linearGradient><linearGradient id="m" x1="782.5" y1="114" x2="1060" y2="965.5" gradientUnits="userSpaceOnUse"><stop stop-color="#DD7741" stop-opacity=".38"/><stop offset=".1807" stop-color="#D23E50" stop-opacity=".4"/><stop offset=".7365" stop-color="#735CAA"/><stop offset="1" stop-color="#510BC9"/></linearGradient><linearGradient id="n" x1="785.5" y1="17" x2="785.5" y2="1125" gradientUnits="userSpaceOnUse"><stop offset=".0017" stop-color="#E28643" stop-opacity=".5"/><stop offset=".4528" stop-color="#D13E5A"/><stop offset="1" stop-color="#D9604B"/></linearGradient><linearGradient id="o" x1="361.5" y1="274" x2="1180.5" y2="1125" gradientUnits="userSpaceOnUse"><stop stop-color="#DD6145" stop-opacity=".6"/><stop offset=".4136" stop-color="#DF7A43" stop-opacity=".6"/><stop offset="1" stop-color="#D3414F"/></linearGradient><linearGradient id="p" x1="33.5" y1="519" x2="797.5" y2="1125" gradientUnits="userSpaceOnUse"><stop stop-color="#D95A47"/><stop offset="1" stop-color="#D34048"/></linearGradient><linearGradient id="q" x1="53.5" y1="714" x2="397.5" y2="1125" gradientUnits="userSpaceOnUse"><stop stop-color="#D43E49"/><stop offset="1" stop-color="#D14A55"/></linearGradient><linearGradient id="r" x1="44.5" y1="1039" x2="31" y2="1125" gradientUnits="userSpaceOnUse"><stop stop-color="#CC4E5A"/><stop offset="1" stop-color="#C74672"/></linearGradient><linearGradient id="s" x1="1346.5" y1="688.5" x2="975" y2="809.5" gradientUnits="userSpaceOnUse"><stop stop-color="#695AA0"/><stop offset="1" stop-color="#334971"/></linearGradient><linearGradient id="t" x1="1728.1" y1="252.559" x2="1348.33" y2="1103.11" gradientUnits="userSpaceOnUse"><stop offset=".3751" stop-color="#635EA5" stop-opacity=".8"/><stop offset="1" stop-color="#4F5491" stop-opacity=".9"/></linearGradient><linearGradient id="u" x1="1894" y1="649" x2="1892" y2="895.5" gradientUnits="userSpaceOnUse"><stop stop-color="#8B6BB8"/><stop offset="1" stop-color="#AA18DD" stop-opacity="0"/></linearGradient><linearGradient id="v" x1="1895.69" y1="649" x2="1893.69" y2="895.5" gradientUnits="userSpaceOnUse"><stop stop-color="#8B6BB8"/><stop offset="1" stop-color="#5D5198"/></linearGradient><linearGradient id="w" x1="1421.57" y1="856.364" x2="1422.65" y2="913.074" gradientUnits="userSpaceOnUse"><stop stop-color="#896AB7"/><stop offset="1" stop-color="#5B5297"/></linearGradient><linearGradient id="x" x1="1923.72" y1="763.555" x2="1650.21" y2="1227.22" gradientUnits="userSpaceOnUse"><stop stop-color="#DD9960"/><stop offset=".4337" stop-color="#D95D4B"/><stop offset=".7647" stop-color="#D34048"/></linearGradient><radialGradient id="d" cx="0" cy="0" r="1" gradientUnits="userSpaceOnUse" gradientTransform="rotate(117.975 479.0606 334.2782) scale(499.912 889.177)"><stop stop-color="#815CAC" stop-opacity=".3"/><stop offset="1" stop-color="#9575B0"/></radialGradient><radialGradient id="e" cx="0" cy="0" r="1" gradientUnits="userSpaceOnUse" gradientTransform="rotate(121.813 538.8658 456.677) scale(474.246 843.524)"><stop stop-color="#2A4876" stop-opacity=".5"/><stop offset=".441" stop-color="#AA59AC" stop-opacity=".3"/><stop offset="1" stop-color="#8159A0" stop-opacity=".5"/></radialGradient><clipPath id="a"><path fill="#fff" d="M0 0h2000v1125H0z"/></clipPath></defs></svg>